Coordinates
version=1
nRows=27
nColumns=38
inDegrees=no

Units are S.I. units (second, meters, Newtons, ...)
If the header above contains a line with 'inDegrees', this indicates whether rotational values are in degrees (yes) or radians (no).

endheader
time	pelvis_tilt	pelvis_list	pelvis_rotation	pelvis_tx	pelvis_ty	pelvis_tz	hip_flexion_r	hip_adduction_r	hip_rotation_r	knee_angle_r	ankle_angle_r	subtalar_angle_r	mtp_angle_r	hip_flexion_l	hip_adduction_l	hip_rotation_l	knee_angle_l	ankle_angle_l	subtalar_angle_l	mtp_angle_l	lumbar_extension	lumbar_bending	lumbar_rotation	arm_flex_r	arm_add_r	arm_rot_r	elbow_flex_r	pro_sup_r	wrist_flex_r	wrist_dev_r	arm_flex_l	arm_add_l	arm_rot_l	elbow_flex_l	pro_sup_l	wrist_flex_l	wrist_dev_l
0	-0.220554	1.35996	-1.16296	0.574646	1.32497	0.956182	0.315284	0.0151392	-0.0794033	0.774835	-0.255846	0	0	-0.349886	-0.0437524	-0.046818	0.0200805	-0.278589	0	0	-0.448534	0.1709	-0.0371501	-0.0586179	-0.573347	0.806103	0.793317	0.589711	0	0	-0.0823362	-0.306642	0.377989	0.6377	1.10503	0	0
0.01	-0.219886	1.37081	-1.16686	0.575122	1.31686	0.954207	0.319456	0.0122638	-0.0782555	0.71049	-0.248682	0	0	-0.352009	-0.0379255	-0.038093	0.0160192	-0.274542	0	0	-0.437673	0.165999	-0.048548	-0.0202757	-0.583969	0.893342	0.789018	0.511261	0	0	-0.0915358	-0.301585	0.350516	0.636085	1.11683	0	0
0.02	-0.218819	1.37855	-1.17026	0.575639	1.30828	0.952499	0.314391	0.0119222	-0.0752363	0.63493	-0.244935	0	0	-0.357198	-0.0340348	-0.035618	0.0109717	-0.270358	0	0	-0.430374	0.162297	-0.0495939	-0.0145954	-0.584066	0.906107	0.786674	0.49984	0	0	-0.0915826	-0.297866	0.340651	0.630892	1.12429	0	0
0.03	-0.214254	1.38584	-1.17652	0.576011	1.29942	0.950769	0.306868	0.0110523	-0.0739567	0.558006	-0.244916	0	0	-0.36254	-0.0305668	-0.0357868	0.00752848	-0.266447	0	0	-0.423282	0.15795	-0.0498546	-0.0120371	-0.58273	0.914147	0.783918	0.493662	0	0	-0.0914015	-0.295115	0.332326	0.626163	1.13204	0	0
0.04	-0.20403	1.39195	-1.18757	0.576504	1.29054	0.949079	0.292867	0.01043	-0.0701676	0.470412	-0.254037	0	0	-0.368324	-0.0267924	-0.0371043	0.00655409	-0.261557	0	0	-0.418008	0.153619	-0.0510625	-0.0101922	-0.582102	0.919811	0.782967	0.48785	0	0	-0.0921316	-0.292449	0.321588	0.623221	1.13972	0	0
0.05	-0.19004	1.39706	-1.20194	0.576946	1.28154	0.947408	0.276837	0.00955203	-0.0657942	0.38355	-0.268129	0	0	-0.374516	-0.0232147	-0.0397472	0.00767627	-0.256542	0	0	-0.413867	0.149143	-0.0528206	-0.00943785	-0.581395	0.922424	0.783037	0.482788	0	0	-0.0937098	-0.290939	0.311706	0.622346	1.14652	0	0
0.06	-0.169964	1.40208	-1.2218	0.577336	1.27228	0.945606	0.260395	0.00769292	-0.0602175	0.300753	-0.283714	0	0	-0.380751	-0.0193129	-0.0432447	0.00981886	-0.251281	0	0	-0.409547	0.143873	-0.0555306	-0.00991663	-0.580566	0.923598	0.783992	0.479049	0	0	-0.096432	-0.290214	0.302352	0.622986	1.15305	0	0
0.07	-0.15111	1.40579	-1.24008	0.577653	1.26298	0.943964	0.240169	0.00707663	-0.0507818	0.215864	-0.302536	0	0	-0.387362	-0.016919	-0.0471664	0.0133842	-0.246064	0	0	-0.4066	0.139348	-0.0581833	-0.0100541	-0.579428	0.925271	0.784611	0.477075	0	0	-0.0991807	-0.28983	0.293387	0.624438	1.15786	0	0
0.08	-0.135885	1.40944	-1.25435	0.578049	1.25367	0.942367	0.215733	0.0074367	-0.0334882	0.125978	-0.325832	0	0	-0.392835	-0.0154488	-0.0509534	0.018693	-0.240212	0	0	-0.403487	0.135798	-0.0606965	-0.00983473	-0.578463	0.928526	0.784791	0.47732	0	0	-0.101705	-0.289565	0.285759	0.625813	1.16233	0	0
0.09	-0.120899	1.41216	-1.26735	0.578522	1.2442	0.940858	0.197495	0.00665049	-0.0223944	0.0657198	-0.337353	0	0	-0.398642	-0.014898	-0.0541826	0.0251149	-0.235009	0	0	-0.400831	0.13315	-0.0638584	-0.0102877	-0.577771	0.931223	0.78548	0.478295	0	0	-0.104232	-0.289919	0.280721	0.627391	1.16651	0	0
0.1	-0.11094	1.41386	-1.27461	0.579069	1.2346	0.93953	0.188121	0.00585601	-0.0249409	0.0418607	-0.336837	0	0	-0.404687	-0.0159005	-0.0569402	0.0323799	-0.231802	0	0	-0.398588	0.132011	-0.0670868	-0.0122654	-0.577305	0.930259	0.786632	0.47751	0	0	-0.106114	-0.290268	0.278487	0.628185	1.16941	0	0
0.11	-0.11227	1.41373	-1.27067	0.579558	1.22488	0.938534	0.182015	0.00724116	-0.0332354	0.0388907	-0.335228	0	0	-0.411878	-0.019764	-0.0601279	0.0402173	-0.229177	0	0	-0.397591	0.13332	-0.0693936	-0.0146496	-0.577141	0.928148	0.787785	0.476175	0	0	-0.107333	-0.289649	0.27637	0.627659	1.1714	0	0
0.12	-0.122594	1.41105	-1.25778	0.580112	1.21529	0.93797	0.176004	0.011458	-0.0449461	0.0491495	-0.335095	0	0	-0.420099	-0.0257907	-0.0635976	0.0503076	-0.225562	0	0	-0.399492	0.137357	-0.0706481	-0.0167492	-0.57837	0.925382	0.790484	0.474374	0	0	-0.107688	-0.287941	0.273126	0.626753	1.17402	0	0
0.13	-0.140439	1.40745	-1.23835	0.580612	1.20562	0.937654	0.172876	0.0179745	-0.0570866	0.0752139	-0.335316	0	0	-0.428333	-0.0330221	-0.0681787	0.0616124	-0.222298	0	0	-0.402265	0.142776	-0.0703444	-0.0189124	-0.580243	0.922615	0.7935	0.472909	0	0	-0.10801	-0.285314	0.268821	0.625521	1.17802	0	0
0.14	-0.161007	1.40375	-1.21721	0.580905	1.19565	0.937417	0.173768	0.0255258	-0.0733284	0.116716	-0.330731	0	0	-0.436485	-0.0409713	-0.073723	0.0736318	-0.220183	0	0	-0.404567	0.148167	-0.0694243	-0.0213669	-0.581607	0.919854	0.795796	0.472418	0	0	-0.109439	-0.2824	0.262666	0.62431	1.18301	0	0
0.15	-0.182242	1.40064	-1.19626	0.581002	1.18537	0.937191	0.175004	0.0336865	-0.0882338	0.158385	-0.321691	0	0	-0.443644	-0.0489855	-0.0797865	0.086804	-0.219802	0	0	-0.405739	0.153096	-0.0688488	-0.0234816	-0.582	0.917601	0.796584	0.472785	0	0	-0.112193	-0.279363	0.254967	0.622953	1.18798	0	0
0.16	-0.20274	1.39764	-1.17647	0.580995	1.17484	0.937008	0.174697	0.04205	-0.100591	0.191924	-0.309577	0	0	-0.450038	-0.0569563	-0.0855634	0.10176	-0.220681	0	0	-0.406546	0.157488	-0.0690693	-0.0248881	-0.581909	0.916992	0.79683	0.474739	0	0	-0.116563	-0.276805	0.245813	0.622725	1.19294	0	0
0.17	-0.223276	1.39468	-1.15676	0.580896	1.16401	0.936885	0.173729	0.0501012	-0.109876	0.216222	-0.301409	0	0	-0.4555	-0.0652007	-0.0910889	0.11871	-0.222649	0	0	-0.406659	0.161784	-0.0704193	-0.0260933	-0.581583	0.916757	0.797151	0.476266	0	0	-0.122154	-0.27489	0.237146	0.62253	1.19741	0	0
0.18	-0.245686	1.39301	-1.13585	0.580716	1.15282	0.936747	0.172919	0.0578911	-0.114399	0.231312	-0.302463	0	0	-0.458367	-0.07316	-0.0966286	0.138257	-0.226159	0	0	-0.404517	0.165803	-0.0724746	-0.0271757	-0.581232	0.918239	0.797337	0.478504	0	0	-0.129119	-0.272304	0.226691	0.621602	1.20179	0	0
0.19	-0.271544	1.39281	-1.11178	0.580505	1.14135	0.936634	0.169022	0.0665822	-0.112176	0.231953	-0.319672	0	0	-0.45769	-0.0811293	-0.101197	0.161308	-0.231874	0	0	-0.400109	0.169786	-0.0760399	-0.0272141	-0.580417	0.921911	0.796338	0.481452	0	0	-0.138096	-0.268879	0.212474	0.620701	1.20758	0	0
0.2	-0.295486	1.3929	-1.08919	0.580279	1.12967	0.936579	0.160678	0.0755304	-0.10463	0.222916	-0.348932	0	0	-0.454708	-0.0891943	-0.103494	0.188061	-0.240029	0	0	-0.395021	0.173319	-0.0816365	-0.0265407	-0.579324	0.926682	0.795078	0.483738	0	0	-0.148987	-0.264827	0.194259	0.62098	1.21685	0	0
0.21	-0.314958	1.39243	-1.07112	0.579925	1.11783	0.936635	0.147836	0.0846204	-0.0902393	0.208331	-0.378076	0	0	-0.45021	-0.0974343	-0.104413	0.218913	-0.250659	0	0	-0.390591	0.176053	-0.087763	-0.025537	-0.578127	0.932497	0.794082	0.485615	0	0	-0.160997	-0.260884	0.174001	0.622473	1.22849	0	0
0.22	-0.332031	1.39076	-1.05427	0.579542	1.10581	0.936821	0.13443	0.0932286	-0.0759817	0.199906	-0.397479	0	0	-0.444165	-0.106962	-0.103942	0.254258	-0.263616	0	0	-0.386765	0.179004	-0.0942798	-0.0256335	-0.57687	0.937705	0.793649	0.486365	0	0	-0.173417	-0.257921	0.155149	0.625025	1.23895	0	0
0.23	-0.348909	1.38917	-1.03588	0.579197	1.09366	0.937117	0.124816	0.100692	-0.0697573	0.2036	-0.407261	0	0	-0.434174	-0.117841	-0.100047	0.295354	-0.28123	0	0	-0.38225	0.18215	-0.10258	-0.0256755	-0.574922	0.943594	0.792461	0.486483	0	0	-0.186313	-0.254792	0.134838	0.627577	1.25107	0	0
0.24	-0.423309	1.38153	-0.963614	0.579351	1.08294	0.939287	0.159759	0.109438	-0.125739	0.324841	-0.364324	0	0	-0.418072	-0.139105	-0.0956013	0.343444	-0.315747	0	0	-0.384083	0.199868	-0.110299	-0.00328364	-0.576845	0.981569	0.783491	0.475189	0	0	-0.192476	-0.220128	0.0348864	0.609167	1.34183	0	0
0.25	-0.403425	1.38624	-0.981284	0.578372	1.06967	0.938202	0.11728	0.118153	-0.070015	0.238992	-0.383837	0	0	-0.400763	-0.1436	-0.0864491	0.393853	-0.339719	0	0	-0.37425	0.191352	-0.12675	-0.00431038	-0.573979	0.992045	0.787547	0.475215	0	0	-0.220311	-0.221426	0.00516365	0.630645	1.35524	0	0
0.26	-0.435595	1.38293	-0.952886	0.577628	1.05791	0.939042	0.107518	0.130429	-0.0607354	0.241461	-0.390511	0	0	-0.380869	-0.15821	-0.0775549	0.449502	-0.377112	0	0	-0.371419	0.196474	-0.130535	0.00147072	-0.574336	1.00774	0.786708	0.471618	0	0	-0.232031	-0.213393	-0.025126	0.633066	1.37541	0	0
